<svg width="20" height="20" viewBox="0 0 20 20" fill="none" xmlns="http://www.w3.org/2000/svg">
<path d="M0.851562 19.1496V17.4464H2.85156V2.55398C2.85156 2.09236 3.02044 1.69209 3.35819 1.35315C3.69595 1.0142 4.09483 0.844727 4.55481 0.844727H15.4472C15.9088 0.844727 16.3091 1.0142 16.648 1.35315C16.987 1.69209 17.1565 2.09236 17.1565 2.55398V17.4464H19.1565V19.1496H0.851562ZM15.4472 17.4464V2.55398H4.55481V17.4464H15.4472ZM12.176 10.7752C12.4168 10.7752 12.6187 10.6937 12.7816 10.5308C12.9446 10.3679 13.026 10.166 13.026 9.92518C13.026 9.68434 12.9446 9.48247 12.7816 9.31955C12.6187 9.15664 12.4168 9.07518 12.176 9.07518C11.9352 9.07518 11.7333 9.15664 11.5704 9.31955C11.4075 9.48247 11.326 9.68434 11.326 9.92518C11.326 10.166 11.4075 10.3679 11.5704 10.5308C11.7333 10.6937 11.9352 10.7752 12.176 10.7752Z" fill="#3B3A4A"/>
</svg>
