<svg width="18" height="21" viewBox="0 0 18 21" fill="none" xmlns="http://www.w3.org/2000/svg">
<path d="M2.61941 11.9999C2.61941 12.9862 2.83697 13.915 3.27211 14.7861C3.70726 15.6573 4.31795 16.3872 5.10418 16.976C5.03752 16.7929 4.98752 16.6039 4.95418 16.409C4.92085 16.2142 4.90418 16.0227 4.90418 15.8347C4.92412 15.3213 5.03507 14.8412 5.23706 14.3945C5.43906 13.9477 5.72574 13.5387 6.09711 13.1673L8.99983 10.3086L11.9085 13.1673C12.2799 13.5387 12.5666 13.9477 12.7686 14.3945C12.9706 14.8412 13.0795 15.3213 13.0955 15.8347C13.0955 16.0227 13.0788 16.2142 13.0455 16.409C13.0121 16.6039 12.9641 16.7929 12.9015 16.976C13.6797 16.3872 14.2884 15.6573 14.7276 14.7861C15.1667 13.915 15.3862 12.9862 15.3862 11.9999C15.3862 11.1318 15.2023 10.2813 14.8345 9.44847C14.4667 8.61564 13.9389 7.84927 13.2509 7.14937C12.9009 7.38742 12.5356 7.57429 12.1549 7.70997C11.7742 7.84567 11.3974 7.91352 11.0246 7.91352C10.02 7.91352 9.18144 7.58064 8.50881 6.91487C7.83616 6.2491 7.47792 5.3992 7.43408 4.36515V3.86515C6.6947 4.40288 6.02878 4.99719 5.43633 5.64807C4.84388 6.29894 4.33896 6.97691 3.92158 7.68199C3.50418 8.38706 3.1828 9.1088 2.95743 9.8472C2.73208 10.5856 2.61941 11.3032 2.61941 11.9999ZM8.99983 12.6956L7.29208 14.3846C7.06175 14.6108 6.88707 14.8601 6.76803 15.1325C6.64901 15.405 6.58951 15.702 6.58951 16.0236C6.58951 16.682 6.82356 17.2394 7.29166 17.6958C7.75976 18.1522 8.3295 18.3803 9.00088 18.3803C9.67228 18.3803 10.2417 18.1517 10.7091 17.6943C11.1765 17.237 11.4102 16.6789 11.4102 16.0201C11.4102 15.7027 11.3508 15.4077 11.232 15.1351C11.1133 14.8625 10.9413 14.6131 10.7162 14.3869L8.99983 12.6956ZM9.08951 0.856445V4.29992C9.08951 4.84119 9.27662 5.29489 9.65083 5.66102C10.025 6.02717 10.4829 6.21025 11.0243 6.21025C11.3111 6.21025 11.578 6.15074 11.8252 6.03172C12.0724 5.91269 12.292 5.73216 12.4841 5.49015L12.9759 4.88035C14.246 5.6039 15.2491 6.60172 15.9853 7.87382C16.7214 9.14594 17.0895 10.5207 17.0895 11.9982C17.0895 14.257 16.3058 16.1703 14.7383 17.738C13.1709 19.3057 11.2579 20.0896 8.99943 20.0896C6.74097 20.0896 4.82813 19.3059 3.26093 17.7385C1.69375 16.1711 0.910156 14.2582 0.910156 11.9998C0.910156 9.84663 1.64176 7.76658 3.10498 5.7597C4.56821 3.75281 6.56306 2.1184 9.08951 0.856445Z" fill="#3B3A4A"/>
</svg>
