<svg width="21" height="22" viewBox="0 0 21 22" fill="none" xmlns="http://www.w3.org/2000/svg">
<path d="M19.4985 21.7499L0.339844 2.59122L1.45669 1.4684L11.036 11.0477L20.6154 20.6271L19.4985 21.7499ZM18.0659 15.9276L16.8045 14.6662C16.9966 14.2488 17.1416 13.8176 17.2396 13.3724C17.3376 12.9272 17.3866 12.4697 17.3866 11.9999C17.3866 11.1318 17.2027 10.2813 16.8349 9.44847C16.4671 8.61564 15.9392 7.84927 15.2512 7.14937C14.9012 7.38742 14.5359 7.57429 14.1552 7.70997C13.7745 7.84567 13.3977 7.91352 13.0249 7.91352C12.0204 7.91352 11.1818 7.58064 10.5091 6.91487C9.83649 6.2491 9.47825 5.3992 9.43442 4.36515V3.86515C9.09165 4.11188 8.76873 4.36795 8.46567 4.63335C8.16259 4.89875 7.871 5.17782 7.59092 5.47057L6.38442 4.2521C7.03415 3.59905 7.74785 2.98533 8.52552 2.41095C9.30319 1.83656 10.158 1.3184 11.0898 0.856445V4.29992C11.0898 4.84119 11.277 5.29489 11.6512 5.66102C12.0254 6.02717 12.4832 6.21025 13.0246 6.21025C13.3113 6.21025 13.5784 6.1504 13.8259 6.03072C14.0733 5.91104 14.2928 5.73085 14.4844 5.49015L14.9762 4.88035C16.2464 5.6039 17.2495 6.60172 17.9856 7.87382C18.7218 9.14594 19.0898 10.5213 19.0898 11.9999C19.0898 12.7159 18.9994 13.4017 18.8184 14.0573C18.6374 14.7129 18.3866 15.3363 18.0659 15.9276ZM11.0002 20.0896C8.74339 20.0896 6.83091 19.3059 5.26274 17.7384C3.69458 16.1709 2.91049 14.258 2.91049 11.9995C2.91049 10.8457 3.12182 9.71071 3.54447 8.59445C3.9671 7.47816 4.58241 6.41205 5.39039 5.39612L6.63387 6.6396C5.99582 7.49431 5.50062 8.38036 5.14827 9.29775C4.79592 10.2151 4.61974 11.1159 4.61974 11.9999C4.61974 12.9862 4.83731 13.915 5.27244 14.7861C5.70759 15.6573 6.31829 16.3872 7.10452 16.976C7.03785 16.7929 6.98785 16.6039 6.95452 16.409C6.92119 16.2142 6.90452 16.0227 6.90452 15.8347C6.92445 15.3213 7.03442 14.8412 7.23442 14.3945C7.43442 13.9477 7.72209 13.5387 8.09744 13.1673L10.6426 10.6483L11.842 11.8477L9.29092 14.3858C9.06105 14.6119 8.88674 14.8611 8.76799 15.1334C8.64923 15.4057 8.58984 15.7026 8.58984 16.024C8.58984 16.6821 8.82389 17.2394 9.29199 17.6958C9.76009 18.1522 10.3298 18.3803 11.0012 18.3803C11.6726 18.3803 12.242 18.1517 12.7094 17.6943C13.1768 17.237 13.4105 16.6789 13.4105 16.0201C13.4105 15.7027 13.3509 15.4059 13.2317 15.1297C13.1125 14.8535 12.9404 14.6036 12.7154 14.3798L13.5322 13.538L17.1849 17.1907C16.445 18.0833 15.5448 18.7896 14.4841 19.3096C13.4234 19.8296 12.2621 20.0896 11.0002 20.0896Z" fill="#3B3A4A"/>
</svg>
