<svg width="20" height="19" viewBox="0 0 20 19" fill="none" xmlns="http://www.w3.org/2000/svg">
<path d="M8.92329 9.82779C9.15939 9.82779 9.35637 9.74481 9.51424 9.57886C9.67209 9.41293 9.75101 9.22097 9.75101 9.00299C9.75101 8.76437 9.67209 8.56528 9.51424 8.40571C9.35637 8.24615 9.15939 8.16636 8.92329 8.16636C8.69937 8.16636 8.50445 8.24615 8.33851 8.40571C8.17256 8.56528 8.08959 8.76437 8.08959 9.00299C8.08959 9.22097 8.17256 9.41293 8.33851 9.57886C8.50445 9.74481 8.69937 9.82779 8.92329 9.82779ZM4.56079 18.1435V16.4403L11.4173 15.2388V3.79246C11.4173 3.53338 11.3439 3.30783 11.1969 3.11581C11.05 2.9238 10.8563 2.81112 10.6157 2.77779L4.56079 1.82071V0.148438L11.0195 1.26256C11.6286 1.36183 12.131 1.65186 12.5268 2.13266C12.9227 2.61346 13.1206 3.1584 13.1206 3.76746V16.6364L4.56079 18.1435ZM0.851562 18.1495V16.4403H2.85156V1.85169C2.85156 1.36295 3.01785 0.956896 3.35044 0.633512C3.68304 0.310129 4.08649 0.148438 4.56079 0.148438H15.4412C15.9317 0.148438 16.3391 0.310129 16.6637 0.633512C16.9882 0.956896 17.1505 1.36295 17.1505 1.85169V16.4403H19.1505V18.1495H0.851562ZM4.56079 16.4403H15.4412V1.85169L4.56079 1.82071V16.4403Z" fill="#3B3A4A"/>
</svg>
